#!OML:ASF H:\Terrain\Walking\May29\JustinRory\Justin.ASF
:FULLY-SPECIFIED
:DEGREES
98
root 8.38687 17.2895 6.63714 -176.825 -63.8454 180.457
lowerback 10.7426 -3.23107 -3.3884
upperback 4.02545 -4.83842 5.0119
thorax -1.07006 -2.63833 7.71967
lowerneck 0.0374356 -14.6427 -15.823
upperneck 10.4148 -21.3406 14.0533
head 6.36056 -10.5643 5.17633
rclavicle -5.1684e-014 3.10104e-014
rhumerus -17.8816 -24.0573 -62.8102
rradius 83.7756
rwrist -37.4317
rhand -11.1748 15.7147
rfingers 7.12502
rthumb 14.8521 -13.733
lclavicle -5.1684e-014 3.10104e-014
lhumerus 0.647348 -45.5616 97.2628
lradius 61.2617
lwrist 0.614272
lhand -5.52656 34.0328
lfingers 7.12502
lthumb 20.2874 62.9932
rfemur -20.6072 -5.68077 5.75814
rtibia 31.2451
rfoot -7.62166 -3.73994
rtoes -19.4181
lfemur -13.5908 9.33623 -7.06271
ltibia 45.5935
lfoot -17.5293 7.11102
ltoes -5.44676
99
root 8.36733 17.2631 6.71471 -178.132 -64.0431 181.626
lowerback 10.9361 -3.0642 -3.18561
upperback 4.01344 -4.59771 5.03631
thorax -1.24094 -2.51054 7.62358
lowerneck 0.0582711 -14.9534 -15.6197
upperneck 10.3414 -21.7726 14.0651
head 6.37929 -10.7657 5.09252
rclavicle 4.57205e-014 -2.94201e-014
rhumerus -18.4567 -25.5545 -61.8847
rradius 83.7392
rwrist -37.8556
rhand -10.0503 15.0085
rfingers 7.12502
rthumb 15.9352 -14.3559
lclavicle 4.57205e-014 -2.94201e-014
lhumerus -0.296683 -45.8168 97.4628
lradius 61.3065
lwrist 0.545451
lhand -5.40029 33.9502
lfingers 7.12502
lthumb 20.4088 62.8977
rfemur -20.1541 -5.36718 5.97387
rtibia 30.9498
rfoot -7.60928 -4.12516
rtoes -19.042
lfemur -13.62 9.71938 -6.35211
ltibia 45.7872
lfoot -17.7702 6.6923
ltoes -8.58155
100
root 8.33596 17.2352 6.83564 -178.576 -63.8438 182.432
lowerback 10.4036 -3.01088 -2.54367
upperback 3.94016 -4.44303 4.82299
thorax -1.12071 -2.41743 6.97173
lowerneck 0.326957 -15.1076 -15.3491
upperneck 9.94334 -21.9844 14.181
head 6.22528 -10.8723 5.09407
rclavicle -2.18663e-015 -2.54444e-014
rhumerus -19.2278 -26.989 -61.019
rradius 83.8287
rwrist -37.049
rhand -10.1637 15.2523
rfingers 7.12502
rthumb 15.826 -14.1209
lclavicle -2.18663e-015 -2.54444e-014
lhumerus -1.13045 -45.4993 97.4044
lradius 61.2492
lwrist 0.098644
lhand -4.97754 34.4049
lfingers 7.12502
lthumb 20.815 63.3084
rfemur -20.6365 -5.59253 5.94106
rtibia 30.9004
rfoot -7.19289 -3.85011
rtoes -19.7552
lfemur -14.2123 10.4136 -6.18258
ltibia 46.0197
lfoot -18.2071 6.22315
ltoes -11.3251
101
root 8.29901 17.2127 6.92537 -179.531 -64.2577 183.272
lowerback 10.0996 -3.17017 -2.30668
upperback 4.00096 -4.63335 4.73639
thorax -0.891927 -2.51594 6.73421
lowerneck 0.845943 -15.0975 -15.3541
upperneck 9.37927 -22.0027 14.5136
head 6.00565 -10.9033 5.24979
rclavicle -2.56432e-014 -1.51076e-014
rhumerus -19.5701 -27.9819 -60.3129
rradius 83.6139
rwrist -36.7934
rhand -9.87402 15.3982
rfingers 7.12502
rthumb 16.105 -13.9526
lclavicle -2.56432e-014 -1.51076e-014
lhumerus -1.89277 -44.8879 97.288
lradius 60.9721
lwrist -0.31991
lhand -4.65453 35.3559
lfingers 7.12502
lthumb 21.1253 64.2251
rfemur -20.2881 -6.06403 6.00355
rtibia 31.0282
rfoot -7.12502 -3.84902
rtoes -23.3495
lfemur -14.2703 10.4111 -5.8428
ltibia 46.1615
lfoot -18.776 5.27333
ltoes -13.234
102
root 8.27254 17.1946 7.02157 -180.427 -64.621 184.028
lowerback 10.206 -3.18742 -2.54629
upperback 3.88084 -4.67552 4.99006
thorax -1.02677 -2.53844 7.16037
lowerneck 1.10142 -15.1612 -15.7318
upperneck 9.3246 -22.1016 14.4571
head 5.99692 -10.9761 5.28791
rclavicle 8.54774e-014 -4.69132e-014
rhumerus -19.2913 -28.5379 -59.0169
rradius 82.8382
rwrist -37.7351
rhand -8.72536 14.9792
rfingers 7.12502
rthumb 17.2108 -14.2787
lclavicle 8.54774e-014 -4.69132e-014
lhumerus -2.93272 -44.2177 97.8544
lradius 60.6533
lwrist -0.718239
lhand -4.65426 35.4374
lfingers 7.12502
lthumb 21.1256 64.3065
rfemur -19.9841 -6.43818 6.0277
rtibia 31.1983
rfoot -7.19025 -3.84488
rtoes -26.564
lfemur -14.4396 10.3933 -5.63376
ltibia 46.4518
lfoot -19.3829 4.33611
ltoes -15.0474
103
root 8.24633 17.1664 7.12379 -180.658 -64.9582 184.091
lowerback 10.3219 -3.14274 -3.00572
upperback 3.66662 -4.64287 5.11056
thorax -1.26975 -2.51113 7.57029
lowerneck 1.52811 -15.1973 -16.1805
upperneck 9.30945 -22.2197 14.5074
head 5.99622 -11.0669 5.37786
rclavicle 3.93594e-014 4.77083e-015
rhumerus -19.8272 -29.7111 -57.2915
rradius 82.4354
rwrist -37.3873
rhand -8.3138 14.8292
rfingers 7.12502
rthumb 17.6069 -14.3936
lclavicle 3.93594e-014 4.77083e-015
lhumerus -4.27139 -43.7563 98.6207
lradius 60.2725
lwrist -1.31837
lhand -3.90451 33.1222
lfingers 7.12502
lthumb 21.8457 61.9091
rfemur -19.7328 -6.50104 5.60566
rtibia 31.2623
rfoot -7.21661 -4.00532
rtoes -26.019
lfemur -14.6949 10.6491 -5.78787
ltibia 46.945
lfoot -19.9653 3.34749
ltoes -16.5197
104
root 8.22253 17.1214 7.22743 -181.293 -65.2407 184.671
lowerback 10.0113 -3.22505 -2.73356
upperback 3.68989 -4.71597 4.82939
thorax -1.11301 -2.5411 7.09231
lowerneck 2.06968 -15.1467 -16.4249
upperneck 8.96014 -22.3008 15.2749
head 5.9309 -11.1257 5.68238
rclavicle 6.16232e-014 -4.05521e-014
rhumerus -20.1323 -31.1584 -56.4882
rradius 81.9012
rwrist -37.0297
rhand -7.80414 14.6013
rfingers 7.12502
rthumb 18.0973 -14.5768
lclavicle 6.16232e-014 -4.05521e-014
lhumerus -5.14875 -43.4076 98.2913
lradius 59.7936
lwrist -1.81457
lhand -1.0857 27.0673
lfingers 7.12502
lthumb 24.5501 55.5134
rfemur -19.5193 -6.3737 5.38761
rtibia 31.0176
rfoot -6.91127 -4.25636
rtoes -25.1762
lfemur -15.0753 11.1016 -5.68294
ltibia 47.7578
lfoot -20.6503 2.43618
ltoes -16.8214
105
root 8.20368 17.0806 7.33519 -182.975 -65.5116 186.483
lowerback 10.0039 -3.41049 -2.49396
upperback 3.64195 -4.95172 5.23131
thorax -1.10789 -2.66968 7.40858
lowerneck 1.81326 -15.1682 -17.1494
upperneck 8.99394 -22.3021 15.4289
head 6.08579 -11.1245 5.79351
rclavicle -6.63941e-014 -3.10104e-014
rhumerus -19.9846 -31.7097 -55.4014
rradius 81.4114
rwrist -37.0031
rhand -7.23374 14.7101
rfingers 7.12502
rthumb 18.646 -14.4163
lclavicle -6.63941e-014 -3.10104e-014
lhumerus -5.73823 -41.9203 98.3552
lradius 59.2946
lwrist -2.13954
lhand 2.17184 29.6443
lfingers 7.12502
lthumb 27.6689 57.6292
rfemur -19.2927 -5.93156 5.73021
rtibia 30.4825
rfoot -6.47161 -4.86964
rtoes -25.2482
lfemur -15.7213 11.7122 -5.06851
ltibia 48.8306
lfoot -21.0486 1.70695
ltoes -16.9582
106
root 8.1775 17.0618 7.4508 -183.934 -65.8394 187.457
lowerback 9.70303 -3.24961 -1.88954
upperback 3.71751 -4.67144 4.80421
thorax -0.993956 -2.51404 6.55364
lowerneck 2.06994 -15.6203 -15.8914
upperneck 8.55221 -22.8947 15.3348
head 5.84644 -11.3997 5.55465
rclavicle 3.8763e-014 2.38542e-015
rhumerus -21.2852 -33.6678 -54.1298
rradius 81.1202
rwrist -37.7019
rhand -6.11271 14.8118
rfingers 7.12502
rthumb 19.724 -14.2075
lclavicle 3.8763e-014 2.38542e-015
lhumerus -6.45109 -42.4522 97.755
lradius 58.9118
lwrist -2.13852
lhand -1.08394 23.9363
lfingers 7.12502
lthumb 24.5518 52.3821
rfemur -18.8557 -5.49729 5.62311
rtibia 29.8215
rfoot -6.0399 -5.56547
rtoes -25.1927
lfemur -16.4078 12.1037 -5.02674
ltibia 49.9727
lfoot -21.2871 1.47865
ltoes -18.907
107
root 8.14505 17.0376 7.57187 -184.029 -66.2412 187.533
lowerback 9.29785 -3.20151 -1.33468
upperback 3.76508 -4.53919 4.05553
thorax -0.848981 -2.42236 5.40206
lowerneck 2.41901 -15.8934 -14.9575
upperneck 8.2354 -23.3503 15.7294
head 5.7032 -11.6176 5.53218
rclavicle -6.89783e-014 1.23246e-014
rhumerus -22.222 -35.5775 -53.1877
rradius 80.4512
rwrist -38.9538
rhand -4.28295 14.6091
rfingers 7.12502
rthumb 21.4822 -14.2197
lclavicle -6.89783e-014 1.23246e-014
lhumerus -7.22586 -42.8609 96.8811
lradius 58.4204
lwrist -2.25514
lhand -3.57475 24.1602
lfingers 7.12502
lthumb 22.1623 52.9099
rfemur -18.3854 -5.44582 5.06495
rtibia 29.1438
rfoot -5.48098 -5.97616
rtoes -24.7677
lfemur -17.1031 12.371 -5.49579
ltibia 51.0423
lfoot -21.6804 1.32986
ltoes -20.7911
108
root 8.1174 16.9932 7.69357 -184.874 -66.6575 188.318
lowerback 9.35413 -3.06977 -1.55511
upperback 3.63944 -4.37553 4.28416
thorax -0.991288 -2.34015 5.76324
lowerneck 2.62247 -16.0718 -15.338
upperneck 8.20066 -23.6647 15.9844
head 5.78656 -11.7833 5.62421
rclavicle -4.78077e-014 1.55052e-014
rhumerus -22.8225 -36.7826 -51.048
rradius 79.8834
rwrist -40.6088
rhand -2.04723 14.0692
rfingers 7.12502
rthumb 23.6281 -14.4989
lclavicle -4.78077e-014 1.55052e-014
lhumerus -8.04047 -42.2006 97.4507
lradius 57.6464
lwrist -2.47315
lhand 2.09855 29.5162
lfingers 7.12502
lthumb 27.5988 57.5124
rfemur -17.8102 -5.37487 4.80666
rtibia 28.4344
rfoot -4.96259 -6.41665
rtoes -24.1286
lfemur -17.651 12.7133 -5.61362
ltibia 52.0055
lfoot -22.0424 0.906947
ltoes -20.7698
109
root 8.09538 16.9597 7.8163 -185.585 -67.0466 188.884
lowerback 9.56666 -2.98222 -2.15614
upperback 3.51728 -4.31009 4.69163
thorax -1.16274 -2.31458 6.55238
lowerneck 2.57237 -16.1937 -15.7169
upperneck 8.26898 -23.8008 15.7884
head 5.85789 -11.8548 5.58278
rclavicle 5.04913e-014 -1.15295e-014
rhumerus -23.2002 -37.5576 -48.9541
rradius 79.4347
rwrist -41.5232
rhand -0.653704 13.5024
rfingers 7.12502
rthumb 24.9641 -14.8869
lclavicle 5.04913e-014 -1.15295e-014
lhumerus -8.72326 -41.0176 98.0739
lradius 56.7733
lwrist -2.72817
lhand 1.99635 29.499
lfingers 7.12502
lthumb 27.5011 57.5107
rfemur -17.1801 -5.07748 4.47314
rtibia 27.7614
rfoot -4.49701 -7.07406
rtoes -24.2855
lfemur -18.1096 12.9911 -5.84902
ltibia 52.8776
lfoot -22.4275 0.477108
ltoes -19.4831
